<?xml version="1.0" encoding="utf-8" ?>
<svg xmlns="http://www.w3.org/2000/svg" xmlns:xlink="http://www.w3.org/1999/xlink" width="2943" height="4305">
	<path fill="#E2E742" d="M51.9333 1091.78C60.9703 950.732 113.971 829.453 187.457 740.392C272.631 637.166 376.289 572.845 484.911 544.514C613.138 511.071 745.529 521.109 875.268 521.085L1382.63 521.117L1996.84 520.784C2131.08 520.727 2266.73 513.788 2400.5 531.86C2417.97 534.22 2435.41 539.452 2452.66 543.982C2583.06 578.214 2721.84 665.862 2807.69 818.413C2847.59 889.308 2876.01 966.979 2885.73 1058.5C2892.4 1121.27 2891.13 1183.51 2891.07 1246.77L2890.95 1451.13L2890.49 2187.94L2890.3 2863.95L2890.77 3056.81C2891.11 3108.78 2892.66 3161.45 2889.18 3213.25C2887.5 3238.18 2885.48 3263.45 2881.21 3287.73C2861.81 3398.18 2810.01 3498.16 2750.4 3569.72C2664.3 3673.08 2553.88 3737.48 2444.78 3764.66C2430.1 3768.32 2414.9 3769.42 2400.08 3771.63C2339.59 3780.64 2280.41 3781.77 2219.74 3781.95L2013.24 3782.29L1284.24 3781.88L823.598 3783.4L688.527 3783.77C659.747 3783.83 630.042 3785.64 601.421 3781.36C563.711 3775.72 524.773 3772.33 487.591 3761.83C351.428 3723.37 211.889 3628.32 123.158 3468.12C89.048 3406.54 67.9833 3337.63 57.2547 3260.3C55.03 3244.27 52.2693 3227.47 51.9728 3211.11C48.899 3083.8 50.9215 2955.81 51.1584 2828.42L51.4467 2239.96L51.5238 1491.98C51.5245 1358.66 49.694 1225.04 51.9333 1091.78Z"/>
	<path fill="#212121" d="M1812.1 801.866C1835.49 800.406 1859.31 802.282 1882.75 802.482L2010.55 802.765L2121.59 802.419C2176.96 801.845 2232.79 800.074 2287.26 817.051C2342.75 834.344 2396.71 868.114 2440.84 920.861C2482.41 970.542 2510.38 1035.82 2515.56 1114.81C2518.1 1153.63 2516.6 1193.49 2516.45 1232.47L2516.15 1422.44L2516.36 1616.47C2516.65 1670.53 2519.93 1727.61 2512.73 1780.9C2506.89 1824.11 2492.02 1863.31 2472.86 1896.92C2408.73 2009.4 2309.23 2047.56 2213.64 2060.17C2188.78 2061.79 2163.69 2060.49 2138.8 2060.41L2002.7 2060.21L1884.72 2060.49C1776.72 2060.71 1680.22 2052.3 1589.85 1950.97C1546.72 1902.61 1515.6 1838.98 1508.86 1758.78C1505.41 1717.63 1507.17 1675.07 1507.34 1633.68L1507.67 1444.49L1507.4 1245.71C1507.09 1192.82 1503.76 1137.34 1510.41 1085.13C1515.66 1043.98 1528.63 1006.97 1546.28 974.275C1611.45 853.5 1713.22 819.056 1812.1 801.866Z"/>
	<path fill="#E2E742" d="M1826.79 1054.1C1857.54 1051.55 1888.39 1052.76 1919.17 1052.98L2056.38 1053.82C2084.44 1053.92 2112.5 1053.75 2140.56 1053.32C2161.1 1053.06 2181.94 1051.8 2202.4 1055.18C2217.12 1057.62 2232.47 1063.13 2244.63 1076.06C2255.64 1087.77 2262.46 1104.23 2264.33 1123.96C2267.47 1157.03 2265.58 1192.74 2265.19 1226.04C2264.75 1268.6 2264.6 1311.16 2264.73 1353.72L2264.85 1588.11C2264.95 1630.84 2266.58 1674.02 2264.81 1716.67C2264.09 1733.99 2263.39 1760.82 2255.54 1774.52C2242.43 1797.37 2220.78 1804.52 2201.47 1807.79C2176.32 1812.82 2149.97 1810.52 2124.63 1810.3L2009.1 1809.43L1894.51 1809.93C1869.05 1810.09 1843.25 1811.53 1817.92 1807.43C1804.84 1805.31 1792.39 1799.99 1781.2 1789.56C1768.86 1778.06 1763.65 1764.68 1760.61 1743.91C1755.61 1709.84 1758.45 1670.75 1758.82 1636.01C1759.22 1595.81 1759.35 1555.6 1759.21 1515.4L1759.02 1281.2C1758.87 1236.09 1757.1 1190.41 1758.92 1145.39C1759.59 1128.91 1760.8 1105.22 1767.42 1091.51C1780.76 1063.88 1805.67 1058.66 1826.79 1054.1Z"/>
	<path fill="#212121" d="M1605.76 2130.4C1654.86 2129.8 1704.02 2131.8 1753.13 2131.92L2132.21 2132L2319.36 2131.77C2359.8 2131.25 2400.42 2128.32 2440.84 2131.01C2454.14 2131.89 2472.8 2132.01 2483.92 2143.93C2490.34 2150.81 2493.89 2161.39 2495.02 2172.73C2498.26 2205.34 2501.54 2346.77 2486.37 2369.69C2479.63 2379.88 2468.16 2382.45 2458.97 2383.5C2432.31 2386.54 2405.34 2384.35 2378.62 2384.16L2238.46 2383.76L1777.5 2383.7L1777.59 2637.74C1967.66 2637.8 2157.88 2640.2 2347.92 2636.7C2374.36 2636.21 2408.67 2630.51 2428.81 2659.24C2432 2672.56 2432.98 2684.63 2433.38 2698.69C2434.35 2732.28 2438.68 2851.54 2424.1 2872.43C2417.04 2882.56 2406.85 2886.53 2397.32 2888.15C2357.63 2894.91 2316.23 2888.48 2276.27 2888.47L2012.53 2888.81L1777.53 2888.8L1777.52 3140.56L2243.19 3140.63L2386.91 3140.61C2408.69 3140.52 2430.78 3137.37 2452.52 3139.62C2463.67 3140.77 2476.67 3143.1 2485.45 3154.13C2494.35 3165.32 2494.8 3185.94 2495.79 3201.93C2497.83 3234.53 2501.95 3356.06 2486.58 3377.64C2478.77 3388.6 2465.4 3391.21 2455.07 3391.97C2389.38 3396.79 2323.31 3392.53 2257.56 3392.25L1909.41 3392.2L1671.26 3392.3C1636.28 3392.37 1600.34 3397.89 1565.52 3392.95C1547.26 3390.35 1537.68 3383.31 1526.16 3362.58C1524.24 3285.58 1525.59 3208.45 1525.74 3131.41L1525.85 2768.88L1525.78 2375.46C1525.71 2318.87 1523.75 2262.17 1524.82 2205.61C1525.05 2193.73 1525.21 2160.86 1530.63 2151.6C1546.13 2125.1 1584.17 2130.77 1605.76 2130.4Z"/>
	<path fill="#212121" d="M931.404 1241.52L1072.92 996.335C1105.37 939.178 1136.43 869.86 1177.05 824.675C1187.26 813.315 1196.8 807.076 1209.35 803.664C1247.38 793.331 1286.54 801.302 1324.91 801.107C1348.92 800.985 1373.67 794.849 1397.54 800.047C1413.65 803.555 1424.52 812.635 1434.13 831.744C1436.03 886.317 1434.7 941.24 1434.59 995.867L1434.44 1268.5L1434.17 2031.29C1419.41 2055.68 1407.33 2059.08 1386.06 2061.34C1356.08 2064.52 1326.15 2060.97 1296.15 2060.81C1270.13 2060.67 1240.7 2066.52 1215.25 2059.06C1202.98 2055.46 1194.31 2046.66 1185.12 2034.97C1179.07 1981.98 1181.91 1928.55 1182.49 1875.16C1182.77 1822.22 1182.84 1769.27 1182.7 1716.32L1182.8 1236.69C1150.33 1284.07 1119.88 1333.93 1089.25 1383.82C1072.12 1411.73 1055.4 1441.57 1036.64 1467.15C1005.9 1509.07 979.859 1508.9 940.101 1509.55C923.862 1509.82 907.43 1510.64 891.206 1509.67C877.718 1508.86 862.818 1506.62 850.883 1496.77C816.618 1468.46 791.248 1414.32 764.956 1372.47L677.343 1234.04C678.703 1287.67 677.571 1341.94 677.569 1395.62L677.535 1700.22C677.47 1803.68 682.217 1908.42 678.128 2011.69C677.776 2020.59 676.169 2029.63 672.835 2037.17C667.832 2048.49 659.238 2054.23 650.521 2057.07C625.833 2065.11 493.722 2065.54 465.724 2059.94C455.668 2057.93 444.912 2054.4 436.518 2045.69C429.752 2038.68 427.439 2027.66 426.228 2016.16C421.127 1967.7 425.498 1914.4 425.961 1865.41C426.64 1793.58 426.099 1721.62 426.117 1649.78L426.29 1070.87C426.387 1003.34 424.381 932.257 425.476 865.532C425.715 850.999 425.614 833.516 432.115 821.6C441.422 804.541 457.678 801.968 471.471 799.689C496.326 797.699 521.844 800.515 546.76 800.559C575.855 800.609 605.594 797.453 634.606 800.78C654.114 803.016 671.055 808.001 686.972 825.461C720.29 862.009 745.569 920.645 772.296 967.025L931.404 1241.52Z"/>
	<path fill="#212121" d="M471.955 2132.25C518.578 2129.05 565.539 2131.63 612.205 2131.83L845.968 2131.91L1183.93 2131.78C1239.73 2131.7 1295.59 2129.65 1351.37 2131.48C1363.76 2131.89 1391.13 2130.78 1401.5 2139.08C1407.99 2144.28 1412.83 2155.78 1414.76 2165.91C1420.78 2197.52 1415.85 2272.25 1415.77 2308.64L1415.59 2626.05L1415.69 2903.21C1416.01 2963.86 1418.86 3025.54 1415.08 3086.02C1412.82 3122.16 1405.77 3153.96 1393.28 3185.32C1354.19 3283.47 1279.34 3342.73 1206.29 3370.73C1179.15 3381.02 1151.41 3387.6 1123.44 3390.38C1056.74 3397.6 989.507 3392.64 922.684 3392.5C846.127 3392.35 748.107 3400.42 674.24 3380.24C625.474 3366.92 580.767 3339.17 538.181 3302.56C522.992 3287.87 508.678 3271.33 495.392 3253.12C442.629 3179.47 436.784 3102.79 435.525 3001.07C435.243 2978.22 433.234 2917.87 445.511 2902.14C452.852 2892.73 470.195 2890.2 479.715 2888.85C503.876 2885.43 528.574 2888.55 552.816 2888.58C580.7 2888.61 608.85 2886.06 636.695 2887.55C651.391 2888.34 670.207 2889.82 680.535 2906.87C697.935 2935.62 688.438 2997.58 687.41 3033.28C686.627 3060.46 688.095 3090.17 701.636 3110.84C720.466 3139.57 749.276 3140.08 774.625 3141.17C841.446 3144.05 908.461 3140.64 975.307 3140.59C1014.67 3140.55 1074.63 3146.42 1111.27 3137.22C1126.16 3133.49 1139.62 3125.74 1150.57 3109.98C1157.27 3100.34 1161.61 3089.33 1162.95 3075.61C1165.79 3046.55 1164.43 3016.15 1164.26 2986.86L1163.81 2860.26L1163.93 2383.61C1025.57 2386.64 886.85 2383.73 748.445 2383.75L578.175 2383.92C546.459 2384.06 514.593 2385.84 482.9 2384.01C472.259 2383.39 460.634 2383.43 451.037 2375.79C443.501 2369.79 440.529 2359.81 438.411 2348.07C433.999 2323.62 433.784 2171.19 441.446 2153.98C448.253 2138.69 460.619 2135.39 471.955 2132.25Z"/>
	<path fill="white" fill-opacity="0.011764706" d="M51.9728 3211.11C47.2055 3203.8 45.2681 3196.56 43.9812 3186.69C39.8853 3155.27 42.648 3080.8 42.6622 3045.28L42.8903 2724.59L43.198 1525.36L42.981 1266.82C42.8463 1217.04 40.9488 1165.47 43.5674 1115.84C43.834 1110.78 44.2559 1106.7 46.3251 1102.54C48.123 1098.88 49.9932 1095.29 51.9333 1091.78C49.694 1225.04 51.5245 1358.66 51.5238 1491.98L51.4467 2239.96L51.1584 2828.42C50.9215 2955.81 48.899 3083.8 51.9728 3211.11Z"/>
</svg>
