<svg xmlns="http://www.w3.org/2000/svg" width="2986" height="4368"><path fill="#E2E742" d="M52.692 1107.753c9.169-143.112 62.944-266.165 137.504-356.53 86.418-104.735 191.59-169.997 301.8-198.743 130.1-33.932 264.425-23.747 396.06-23.772l514.774.033 623.184-.338c136.201-.058 273.833-7.098 409.557 11.238 17.725 2.395 35.42 7.703 52.922 12.3 132.305 34.732 273.113 123.662 360.217 278.445 40.483 71.932 69.318 150.74 79.18 243.6 6.768 63.688 5.48 126.839 5.418 191.024l-.121 207.35-.467 747.59-.193 685.9.477 195.681c.345 52.73 1.918 106.17-1.613 158.729-1.705 25.294-3.754 50.934-8.087 75.57-19.683 112.065-72.24 213.508-132.72 286.115-87.359 104.872-199.392 170.214-310.086 197.792-14.894 3.713-30.316 4.83-45.353 7.072-61.374 9.142-121.418 10.288-182.975 10.47l-209.517.346-739.65-.416-467.372 1.542-137.045.375c-29.2.061-59.34 1.898-88.378-2.445-38.261-5.722-77.768-9.162-115.493-19.816-138.153-39.022-279.73-135.463-369.758-298.007-34.608-62.48-55.98-132.399-66.866-210.86-2.257-16.264-5.058-33.31-5.359-49.91-3.119-129.172-1.067-259.035-.826-388.288l.292-597.07.078-758.922c.001-135.27-1.856-270.846.416-406.055"/><path fill="#212121" d="M1838.575 813.597c23.731-1.481 47.9.422 71.682.625l129.667.287 112.662-.35c56.18-.583 112.825-2.38 168.09 14.845 56.301 17.546 111.05 51.81 155.825 105.33 42.177 50.407 70.556 116.64 75.811 196.786 2.577 39.387 1.055 79.83.903 119.38l-.304 192.75.213 196.869c.294 54.85 3.622 112.766-3.683 166.835-5.925 43.843-21.013 83.616-40.453 117.718-65.067 114.125-166.02 152.844-263.007 165.638-25.223 1.644-50.68.325-75.933.244l-138.089-.203-119.703.284c-109.578.223-207.488-8.31-299.178-111.122-43.76-49.068-75.335-113.629-82.174-195.002-3.5-41.752-1.714-84.935-1.542-126.93l.335-191.958-.274-201.688c-.315-53.664-3.693-109.956 3.054-162.93 5.327-41.752 18.486-79.303 36.394-112.476 66.122-122.542 169.379-157.49 269.704-174.932"/><path fill="#E2E742" d="M1853.48 1069.521c31.199-2.587 62.5-1.36 93.729-1.136l139.215.852c28.47.102 56.94-.07 85.41-.507 20.84-.264 41.984-1.542 62.743 1.887 14.935 2.476 30.51 8.066 42.847 21.186 11.17 11.881 18.09 28.582 19.988 48.6 3.186 33.554 1.268 69.787.872 103.574a9673 9673 0 0 0-.466 129.548l.121 237.819c.102 43.355 1.756 87.167-.04 130.44-.73 17.574-1.441 44.797-9.406 58.697-13.301 23.184-35.268 30.439-54.86 33.757-25.517 5.103-52.252 2.77-77.962 2.547l-117.218-.883-116.264.507c-25.832.162-52.01 1.624-77.71-2.536-13.27-2.151-25.902-7.55-37.256-18.132-12.52-11.668-17.806-25.244-20.89-46.318-5.074-34.568-2.192-74.23-1.817-109.478.406-40.788.538-81.587.396-122.375l-.193-237.626c-.152-45.77-1.948-92.118-.101-137.797.68-16.721 1.907-40.758 8.624-54.668 13.535-28.035 38.809-33.33 60.237-37.958"/><path fill="#212121" d="M1629.22 2161.568c49.817-.61 99.696 1.42 149.523 1.542l384.618.081 189.885-.233c41.03-.528 82.244-3.5 123.255-.771 13.494.892 32.426 1.014 43.709 13.109 6.514 6.98 10.116 17.715 11.262 29.22 3.287 33.088 6.615 176.587-8.776 199.842-6.839 10.34-18.476 12.947-27.8 14.012-27.05 3.085-54.414.863-81.524.67l-142.208-.406-467.695-.06.091 257.756c192.847.06 385.847 2.496 578.663-1.055 26.826-.497 61.638-6.28 82.072 22.87 3.236 13.514 4.23 25.761 4.637 40.027.984 34.081 5.377 155.086-9.416 176.282-7.163 10.278-17.502 14.306-27.171 15.95-40.27 6.858-82.275.334-122.819.324l-267.593.345-238.433-.01-.01 255.443 472.473.071 145.82-.02c22.098-.091 44.51-3.287 66.568-1.004 11.313 1.166 24.503 3.53 33.411 14.722 9.03 11.354 9.487 32.275 10.491 48.5 2.07 33.076 6.25 156.384-9.344 178.28-7.924 11.12-21.49 13.768-31.97 14.54-66.65 4.89-133.686.568-200.396.283l-353.237-.05-241.629.101c-35.491.071-71.956 5.672-107.285.66-18.527-2.638-28.247-9.781-39.935-30.815-1.948-78.126-.578-156.384-.426-234.552l.112-367.833-.071-399.176c-.071-57.418-2.06-114.948-.975-172.335.234-12.054.396-45.405 5.895-54.8 15.727-26.888 54.323-21.135 76.228-21.51"/><path fill="#212121" d="m945.012 1259.683 143.583-248.772c32.924-57.993 64.438-128.325 105.652-174.171 10.359-11.526 20.038-17.857 32.771-21.319 38.586-10.484 78.318-2.396 117.249-2.594 24.36-.124 49.472-6.35 73.69-1.075 16.346 3.559 27.375 12.772 37.126 32.16 1.927 55.372.578 111.098.466 166.524l-.152 276.622-.274 773.95c-14.976 24.746-27.232 28.196-48.813 30.49-30.418 3.226-60.785-.376-91.223-.538-26.4-.143-56.26 5.793-82.082-1.776-12.45-3.653-21.246-12.581-30.57-24.443-6.139-53.765-3.257-107.976-2.669-162.148.284-53.714.355-107.439.213-161.163l.102-486.647c-32.945 48.073-63.84 98.662-94.917 149.282-17.38 28.318-34.345 58.595-53.379 84.55-31.189 42.533-57.61 42.36-97.95 43.02-16.475.274-33.148 1.106-49.609.121-13.685-.822-28.802-3.094-40.912-13.088-34.765-28.725-60.506-83.657-87.182-126.119l-88.893-140.455c1.38 54.414.231 109.478.23 163.944l-.035 309.056c-.066 104.974 4.75 211.246.601 316.027-.357 9.03-1.987 18.202-5.37 25.853-5.076 11.485-13.796 17.31-22.64 20.19-25.049 8.158-159.09 8.595-187.497 2.913-10.203-2.04-21.116-5.621-29.633-14.459-6.864-7.112-9.211-18.293-10.44-29.962-5.175-49.169-.74-103.248-.27-152.955.688-72.881.14-145.894.157-218.785l.176-587.38c.098-68.517-1.937-140.64-.826-208.341.243-14.746.14-32.485 6.736-44.575 9.443-17.309 25.937-19.92 39.931-22.232 25.218-2.019 51.109.838 76.389.883 29.52.05 59.694-3.151 89.13.224 19.792 2.269 36.981 7.327 53.13 25.042 33.805 37.083 59.454 96.577 86.571 143.635z"/><path fill="#212121" d="M478.85 2163.445c47.304-3.247 94.951-.63 142.3-.426l237.177.08 342.9-.131c56.615-.081 113.291-2.161 169.886-.305 12.571.416 40.341-.71 50.863 7.712 6.585 5.276 11.495 16.944 13.454 27.222 6.107 32.073 1.105 107.896 1.024 144.818l-.182 322.054.101 281.215c.325 61.537 3.216 124.12-.619 185.484-2.293 36.67-9.446 68.934-22.118 100.753-39.661 99.586-115.605 159.713-189.722 188.123-27.537 10.44-55.682 17.116-84.06 19.937-67.675 7.326-135.89 2.293-203.69 2.151-77.675-.152-177.127 8.036-252.073-12.44-49.479-13.514-94.84-41.67-138.047-78.816-15.411-14.905-29.934-31.687-43.414-50.163-53.534-74.727-59.465-152.53-60.742-255.737-.286-23.185-2.325-84.418 10.132-100.378 7.448-9.547 25.044-12.114 34.704-13.484 24.514-3.47 49.572-.305 74.169-.274 28.29.03 56.852-2.557 85.104-1.045 14.91.801 34.002 2.303 44.48 19.602 17.655 29.171 8.019 92.037 6.976 128.26-.795 27.577.695 57.722 14.434 78.694 19.105 29.15 48.336 29.668 74.055 30.774 67.797 2.922 135.791-.538 203.614-.588 39.938-.04 100.774 5.915 137.95-3.42 15.107-3.784 28.764-11.648 39.874-27.638 6.798-9.781 11.201-20.952 12.56-34.873 2.882-29.485 1.502-60.33 1.33-90.048l-.457-128.453.122-483.623c-140.382 3.074-281.128.122-421.555.142l-172.758.173c-32.18.142-64.51 1.948-96.667.09-10.796-.628-22.591-.588-32.328-8.34-7.647-6.087-10.662-16.213-12.81-28.125-4.477-24.808-4.696-179.468 3.078-196.93 6.907-15.513 19.454-18.861 30.955-22.047"/><path fill="#fff" fill-opacity=".012" d="M52.732 3258.088c-4.837-7.417-6.803-14.762-8.108-24.777-4.156-31.88-1.353-107.439-1.339-143.479l.232-325.381.312-1216.775-.22-262.323c-.137-50.508-2.062-102.832.595-153.188.27-5.134.698-9.274 2.798-13.495a255 255 0 0 1 5.69-10.917c-2.272 135.21-.415 270.784-.416 406.055l-.078 758.922-.292 597.07c-.24 129.253-2.293 259.116.826 388.288"/></svg>